<svg id="Capa_1" data-name="Capa 1" xmlns="http://www.w3.org/2000/svg" width="1800" height="555.21" viewBox="0 0 1800 555.21"><defs><style>.cls-1{fill:#1b1c1a;}</style></defs><path class="cls-1" d="M0,505.21V202.59H259.22C188.33,360.85,61.59,477.77,0,505.21M389.27,78.05c0-31.31-.49-78.23-.28-78C288.93,306.14,55.47,484,0,505.08v40c26.14-15.52,287.78-172.8,389.27-467"/><path class="cls-1" d="M268.15,545.16H68.93c71.52-32.91,202.92-93.91,320-295.18V385.14c0,69.43-18.21,157.44-120.79,160M97.38,490.71C41.6,529.81,0,545.12,0,545.12H68.51S273.69,439.86,389,204.07c0-24.33.1-59.47.2-73.28-89.19,208-204,298.3-291.84,359.92"/><path class="cls-1" d="M576.57,237c-17.78,0-26.14,7.24-26.14,19.28v22.35c0,12.06,8.36,19.28,26.14,19.28s26.27-7.22,26.27-19.28V256.26c0-12-8.38-19.28-26.27-19.28m14.21,39.92c0,7.45-2.4,11.81-14.21,11.81s-14.11-4.36-14.11-11.81V258c0-7.44,2.41-11.8,14.11-11.8s14.21,4.36,14.21,11.8Zm423.37-49h8.5V219.2c0-1.37-2-2.86-3.32-2.86h-8.62v8.84c0,1.48,1.73,2.74,3.44,2.74m-3.44,9.65v53.22c0,6.53,12,6.53,12,6.53V244.09c0-6.52-11.57-6.52-12-6.52m52-.59c-17.81,0-26.18,7.24-26.18,19.28v22.35c0,12.06,8.37,19.28,26.18,19.28s26.25-7.22,26.25-19.28V256.26c0-12-8.37-19.28-26.25-19.28m14.21,39.92c0,7.45-2.42,11.81-14.21,11.81s-14.14-4.36-14.14-11.81V258c0-7.44,2.42-11.8,14.14-11.8s14.21,4.36,14.21,11.8ZM920.65,246.61h20.87s0-9.63-5.22-9.63H918.94c-15.49,0-24.8,7.24-24.8,19.28v22.35c0,12.18,9.65,19.28,25.14,19.28h17c5.28,0,5.28-9.75,5.28-9.75H929.07v0c-2.68,0-5.46.09-8.65.09-9.87,0-14.22-3.91-14.22-12.05V258.65c0-8.81,4.94-12,14.45-12m57.71,0h20.88s0-9.63-5.23-9.63H976.63c-15.48,0-24.76,7.24-24.76,19.28v22.35c0,12.18,9.62,19.28,25.13,19.28h17c5.28,0,5.28-9.75,5.28-9.75H986.78v0c-2.67,0-5.47.09-8.65.09-9.86,0-14.22-3.91-14.22-12.05V258.65c0-8.81,4.91-12,14.45-12M689.24,255c0-5.73,3.33-8.26,12.38-8.26h21.56s0-10-5.4-10H701.05c-15.71,0-24.09,6.31-24.09,18.58,0,24.54,36.83,9.62,36.83,24,0,6-5.51,8.83-12.74,8.83H677.79s0,9.75,5.31,9.75h17.95c16.86,0,25-7,25-18,0-27.06-36.81-12.85-36.81-24.89m77.37,33.19c-1.53,0-2.9.08-5.68.08-8.83,0-11.34-4.93-11.34-12.85V250.17H766.1c7,0,7.12-9.63,7.12-9.63H749.59v-4.36c0-10-9.41-10.22-12-10.22v52.65c0,12.18,8.26,19.28,21.91,19.28h14.31c5.29,0,5.29-9.75,5.29-9.75H766.61ZM507.72,224.25h31s0-10.21-5.53-10.21H507.72c-17.55,0-33,7.1-33,27.29V270.6c0,20.19,15.49,27.29,33,27.29h25.43c5.53,0,5.53-10.2,5.53-10.2h-31c-12.05,0-20.53-4.58-20.53-18.83V242.94c0-14.22,8.48-18.69,20.53-18.69M642.53,237c-6.13,0-11.18,2.25-16.62,2.39-3.54-2.15-9.3-2.15-9.3-2.15v53.57c0,6.53,12.06,6.53,12.06,6.53v-49a37.75,37.75,0,0,1,12.26-2c9.17,0,12.5,3.79,12.5,10.32v34.09c0,6.3,12.05,6.53,12.05,6.53V255c0-14.22-11.82-18-23-18m176,.05h-7.06c-.23,0-.46-.05-.71-.05-6,0-10.2,2-14.64,2.34-3.56-2.1-9.22-2.1-9.22-2.1v53.45c0,6.65,12,6.65,12,6.65V248.45a34.89,34.89,0,0,1,9.74-1.62c.94,0,1.75,0,2.58,0v0h12.62s0-9.85-5.36-9.85m49.84.54v49a39.65,39.65,0,0,1-12.4,1.94c-9.18,0-12.39-3.78-12.39-10.33V244.09c0-6.43-12-6.52-12-6.52v42.31c0,14.23,11.7,18,22.83,18,6.35,0,11.48-2.33,16.91-2.4,3.57,2.05,9.13,2.05,9.13,2.05V244.09c0-6.52-12-6.52-12-6.52m260.32-.59c-6.14,0-11.18,2.25-16.61,2.39-3.57-2.15-9.32-2.15-9.32-2.15v53.57c0,6.53,12.06,6.53,12.06,6.53v-49a37.57,37.57,0,0,1,12.25-2c9.2,0,12.54,3.79,12.54,10.32v34.09c0,6.3,12,6.53,12,6.53V255c0-14.22-11.81-18-22.94-18m106.13,18c0-5.73,3.33-8.26,12.39-8.26h21.57s0-10-5.4-10h-16.74c-15.71,0-24.09,6.31-24.09,18.58,0,24.54,36.81,9.62,36.81,24,0,6-5.49,8.83-12.72,8.83h-23.26s0,9.75,5.3,9.75h18c16.86,0,25-7,25-18,0-27.06-36.83-12.85-36.83-24.89m-45.67,18c17.44,0,23.53-8.37,23.53-17.89,0-10.89-7.93-18.12-23.41-18.12s-23.86,7.23-23.86,19.28v22.35c0,12.05,9.64,19.27,25.58,19.27h13.64c5.28,0,5.28-9.75,5.28-9.75H1191c-9.63,0-13.53-3.78-13.53-11.24V273Zm-11.69-15c0-7.44,2.41-11.8,11.59-11.8,8.47,0,11.58,3.68,11.58,9s-3.33,8.16-13,8.16h-10.2Z"/><path class="cls-1" d="M1690.5,530c0,6.59-4.59,10.56-14.39,10.56s-14.33-4-14.33-10.56V517.74c0-6.57,4.6-10.53,14.33-10.53s14.39,4,14.39,10.53Zm-629,5.21h-3.55c-5.26,0-7.41-2.07-7.41-6.18v-2.12h6.43c9.55,0,12.87-4.59,12.87-9.81,0-6-4.33-9.92-12.83-9.92s-13.06,4-13.06,10.53V530c0,6.6,5.29,10.56,14,10.56h7.48c2.89,0,2.89-5.34,2.89-5.34h-6.82Zm349.11,0c-5.27,0-7.39-2.07-7.39-6.18v-2.12h6.41c9.54,0,12.87-4.59,12.87-9.81,0-6-4.33-9.92-12.8-9.92s-13.07,4-13.07,10.53V530c0,6.6,5.26,10.56,14,10.56h7.49c2.87,0,2.87-5.34,2.87-5.34Zm152.47,0h-3.54c-5.27,0-7.39-2.07-7.39-6.18v-2.12h6.4c9.55,0,12.88-4.59,12.88-9.81,0-6-4.33-9.92-12.83-9.92s-13.06,4-13.06,10.53V530c0,6.6,5.27,10.56,14,10.56h7.5c2.9,0,2.9-5.34,2.9-5.34H1563Zm193.2,0h-3.55c-5.28,0-7.4-2.07-7.4-6.18v-2.12h6.4c9.55,0,12.87-4.59,12.87-9.81,0-6-4.34-9.92-12.81-9.92s-13.06,4-13.06,10.53V530c0,6.6,5.28,10.56,14,10.56h7.46c2.93,0,2.93-5.34,2.93-5.34h-6.84Zm-735.91-28h-7.66c-2.82,0-2.82,5.21-2.82,5.21h10.48c5.34,0,6.67,2.12,6.67,4.92-2.4,5.44-19.55,1.74-19.55,13.69,0,7.16,6.1,9.55,12.19,9.55,3.53,0,6.42-1.15,9.42-1.15h.12a12.07,12.07,0,0,0,4.41.89V517.64c0-6.62-4.64-10.43-13.26-10.43m331.91,0h-7.65c-2.83,0-2.83,5.21-2.83,5.21h10.48c5.35,0,6.67,2.12,6.67,4.92-2.38,5.44-19.52,1.74-19.52,13.69,0,7.16,6.08,9.55,12.17,9.55,3.53,0,6.41-1.15,9.42-1.15h.11a12.08,12.08,0,0,0,4.42.89V517.64c0-6.62-4.66-10.43-13.27-10.43m-869.5-12.44s6.86,0,6.86,3.56v42.11s-6.86,0-6.86-3.57Zm166,1.12h4.7c.77,0,1.83.83,1.83,1.58v4.77h-4.65a1.8,1.8,0,0,1-1.88-1.51Zm0,11.63c.24,0,6.6,0,6.6,3.58v29.18s-6.6,0-6.6-3.6Zm81.84.18c.37,0,6.6.07,6.6,3.65v29s-6.6,0-6.6-3.62Zm1.56-3.81c-.23-.26-4.09-4.2-1.83-6.45l6.25-6.24s4.13,4.13,1.87,6.39Zm167.53-9.12s6.86,0,6.86,3.56v42.11s-6.86,0-6.86-3.57Zm554.57,0s6.87,0,6.87,3.56v42.11s-6.87,0-6.87-3.57ZM1536,519.83a29.27,29.27,0,0,1-13,21.24,29,29,0,0,1-13.08-21.24l-1.24-12.31s6.33,0,6.8,3.5l1.23,10.09c1.13,8.91,6.22,13.11,6.29,13.11s5.16-4.4,6.22-13.11l1.27-10.09c.43-3.5,6.84-3.5,6.84-3.5Zm108.52-23.94h4.7c.76,0,1.82.83,1.82,1.58v4.77h-4.64a1.8,1.8,0,0,1-1.88-1.51Zm0,11.63c.24,0,6.59,0,6.59,3.58v29.18s-6.59,0-6.59-3.6Zm39.41,11.19c0-4.09-1.32-6.48-7.8-6.48s-7.74,2.39-7.74,6.48v10.37c0,4.08,1.33,6.48,7.74,6.48s7.8-2.4,7.8-6.48Zm-454.85,16.52h0c-1.48,0-3,.06-4.74.06-5.41,0-7.8-2.13-7.8-6.61v-9.6c0-4.84,2.71-6.59,7.92-6.59h11.44s0-5.28-2.87-5.28h-9.51c-8.49,0-13.58,4-13.58,10.53V530c0,6.65,5.28,10.56,13.76,10.56h9.3c2.9,0,2.9-5.34,2.9-5.34Zm-96.35,0h-2.1v0c-.83,0-1.6,0-3.11,0-4.84,0-6.22-2.69-6.22-7V514.43h9.06c3.82,0,3.88-5.27,3.88-5.27h-12.94v-2.4c0-5.47-5.13-5.58-6.59-5.58V530c0,6.66,4.52,10.56,12,10.56h7.84c2.9,0,2.9-5.35,2.9-5.35Zm130.61,0h-2.08v0c-.83,0-1.59,0-3.1,0-4.84,0-6.23-2.69-6.23-7V514.43h9c3.86,0,3.91-5.27,3.91-5.27h-12.95v-2.4c0-5.47-5.14-5.58-6.59-5.58V530c0,6.66,4.52,10.56,12,10.56h7.84c2.9,0,2.9-5.35,2.9-5.35Zm-671.45,0h-3.53c-5.28,0-7.42-2.07-7.42-6.18v-2.12h6.41c9.55,0,12.89-4.59,12.89-9.81,0-6-4.35-9.92-12.82-9.92s-13.07,4-13.07,10.53V530c0,6.6,5.28,10.56,14,10.56h7.46c2.91,0,2.91-5.34,2.91-5.34h-6.84Zm-11-16.52c0-4.09,1.31-6.48,6.34-6.48,4.64,0,6.35,2,6.35,4.9s-1.82,4.45-7.1,4.45h-5.59Zm102.66,16.52H680c-5.26,0-7.41-2.07-7.41-6.18v-2.12h6.43c9.54,0,12.86-4.59,12.86-9.81,0-6-4.31-9.92-12.82-9.92s-13.07,4-13.07,10.53V530c0,6.6,5.3,10.56,14,10.56h7.48c2.89,0,2.89-5.34,2.89-5.34h-6.83Zm-11-16.52c0-4.09,1.32-6.48,6.36-6.48,4.65,0,6.33,2,6.33,4.9s-1.81,4.45-7.09,4.45h-5.6Zm186.9,16.52H856c-5.27,0-7.41-2.07-7.41-6.18v-2.12H855c9.55,0,12.89-4.59,12.89-9.81,0-6-4.35-9.92-12.82-9.92s-13.08,4-13.08,10.53V530c0,6.6,5.28,10.56,14,10.56h7.49c2.89,0,2.89-5.34,2.89-5.34h-6.84Zm-10.95-16.52c0-4.09,1.33-6.48,6.37-6.48,4.65,0,6.34,2,6.34,4.9s-1.84,4.45-7.1,4.45h-5.61Zm201.91,0c0-4.09,1.34-6.48,6.36-6.48,4.64,0,6.35,2,6.35,4.9s-1.84,4.45-7.09,4.45h-5.62Zm352.68,0c0-4.09,1.32-6.48,6.36-6.48,4.64,0,6.33,2,6.33,4.9s-1.82,4.45-7.11,4.45h-5.58Zm148.93,0c0-4.09,1.31-6.48,6.31-6.48,4.67,0,6.39,2,6.39,4.9s-1.84,4.45-7.12,4.45h-5.58Zm193.18,0c0-4.09,1.29-6.48,6.33-6.48,4.66,0,6.37,2,6.37,4.9s-1.84,4.45-7.12,4.45h-5.58ZM515.71,507.2c-3.37,0-6.16,1.24-9.16,1.29a11.82,11.82,0,0,0-5-1.18v29.35c0,3.62,6.59,3.62,6.59,3.62V513.43a20.63,20.63,0,0,1,6.72-1.08c5,0,6.86,2.08,6.86,5.66v18.65c0,3.48,6.62,3.62,6.62,3.62V517.05c0-7.78-6.5-9.85-12.62-9.85M971,495.7h9.92s0-5.34-2.92-5.34h-7.13c-7.15,0-14.28,4-14.28,10.56v35.76c0,3.6,6.61,3.6,6.61,3.6V514.43h7.67c3.83,0,3.88-5.27,3.88-5.27H963.19V502.1c0-4.07,3.58-6.4,7.8-6.4M552.82,535.47h-2.08c-4.77,0-7.42-.44-7.42-3.58a19.63,19.63,0,0,1,.45-2.88,16,16,0,0,0,8,1.83c8.48,0,13.07-4,13.07-10.63v-12.9a11.75,11.75,0,0,0-4.9,1.14c-3,0-6-1.24-9.42-1.24-6,0-11.89,2.63-11.89,9.74v3.26A10.31,10.31,0,0,0,541,527c-1.82,2.13-3.16,4-3.16,6.48,0,6.47,5.64,7.11,11.71,7.11h3.06c4.08,0,6.92.37,6.92,3.82,0,3.21-1.88,5.6-8,5.6h-13s0,5,2.73,5h10.53c9.81,0,14.27-4.44,14.27-10.93,0-8.48-7-8.62-13.26-8.62m-7.55-17.58c0-4.09,1.53-5.78,6.48-5.78a16.63,16.63,0,0,1,6.59,1.32v5.84c0,4.15-1.32,6.55-6.53,6.55s-6.54-2.4-6.54-6.55Zm79.59-10.69c-3.41,0-6.19,1.24-9.19,1.29a11.91,11.91,0,0,0-5-1.18v29.35c0,3.62,6.62,3.62,6.62,3.62V513.43a20.68,20.68,0,0,1,6.71-1.08c5,0,6.87,2.08,6.87,5.66v18.65c0,3.48,6.59,3.62,6.59,3.62V517.05c0-7.78-6.48-9.85-12.56-9.85m199.83-14.77v13a16.65,16.65,0,0,0,.57,4.71s-2.56-2.94-9-2.94c-6.27,0-11.73,3.89-11.73,10.36v12.58c0,6.66,4.83,10.43,13.31,10.43,2.91,0,5.85-1.08,8.8-1.08h.16a12.76,12.76,0,0,0,4.48.87V496.65c0-4.28-6.21-4.22-6.59-4.22m0,42a14.9,14.9,0,0,1-6.1,1.15c-5.85,0-7.48-2.09-7.48-6.37V518.53c0-4.41,2.53-6.3,6-6.3,3.78,0,7.6,2.31,7.6,5.66Zm-64.49-27.2h-7.67c-2.81,0-2.81,5.21-2.81,5.21H760.2c5.34,0,6.65,2.12,6.65,4.92-2.37,5.44-19.53,1.74-19.53,13.69,0,7.16,6.08,9.55,12.19,9.55,3.53,0,6.4-1.15,9.43-1.15H769a12.18,12.18,0,0,0,4.43.89V517.64c0-6.62-4.64-10.43-13.26-10.43m6.85,27.07a14.76,14.76,0,0,1-6.6,1.46c-4.51,0-6.6-1.94-6.6-4.71,0-6.55,11.88-4.27,13.2-8Zm260.12,0a14.69,14.69,0,0,1-6.59,1.46c-4.52,0-6.59-1.94-6.59-4.71,0-6.55,11.87-4.27,13.18-8v11.29Zm331.92,0a14.76,14.76,0,0,1-6.6,1.46c-4.52,0-6.59-1.94-6.59-4.71,0-6.55,11.87-4.27,13.19-8ZM932.69,507.2c-3.4,0-6.17,1.24-9.18,1.29a11.84,11.84,0,0,0-5-1.18v29.35c0,3.62,6.58,3.62,6.58,3.62V513.43a20.65,20.65,0,0,1,6.73-1.08c5,0,6.86,2.08,6.86,5.66v18.65c0,3.48,6.6,3.62,6.6,3.62V517.05c0-7.78-6.49-9.85-12.58-9.85m554.57,0c-3.39,0-6.17,1.24-9.18,1.29a11.82,11.82,0,0,0-5-1.18v29.35c0,3.62,6.59,3.62,6.59,3.62V513.43a20.65,20.65,0,0,1,6.73-1.08c5,0,6.85,2.08,6.85,5.66v18.65c0,3.48,6.58,3.62,6.58,3.62V517.05c0-7.78-6.46-9.85-12.56-9.85m228.14,0c-3.39,0-6.19,1.24-9.19,1.29a11.91,11.91,0,0,0-5-1.18v29.35c0,3.62,6.6,3.62,6.6,3.62V513.43a20.75,20.75,0,0,1,6.74-1.08c5,0,6.84,2.08,6.84,5.66v18.65c0,3.48,6.63,3.62,6.63,3.62V517.05c0-7.78-6.5-9.85-12.58-9.85m-995.7,0h-4v0l-.28,0c-3.32,0-5.66,1.1-8.14,1.24a12.31,12.31,0,0,0-4.93-1.12v29.29c0,3.66,6.59,3.66,6.59,3.66V513.49a19.17,19.17,0,0,1,5.36-.89h1.4v0h6.91s0-5.4-2.94-5.4m279.29,0h-4l-.28,0c-3.32,0-5.66,1.07-8.13,1.24a12.32,12.32,0,0,0-5-1.12v29.29c0,3.66,6.6,3.66,6.6,3.66V513.49a19.33,19.33,0,0,1,5.35-.89H995v0H1002s0-5.4-3-5.4m163.19,0h-4v0l-.29,0c-3.32,0-5.65,1.07-8.13,1.24a12.32,12.32,0,0,0-4.94-1.12v29.29c0,3.66,6.59,3.66,6.59,3.66V513.49a19.12,19.12,0,0,1,5.34-.89h1.43v0h6.9s0-5.4-3-5.4m168.74,0h-4l-.31,0c-3.3,0-5.66,1.07-8.13,1.24a12.35,12.35,0,0,0-5-1.12v29.29c0,3.66,6.61,3.66,6.61,3.66V513.49a19.26,19.26,0,0,1,5.36-.89H1327v0h6.9s0-5.4-2.94-5.4m268.25,0h-4l-.27,0c-3.33,0-5.69,1.1-8.16,1.24a12.19,12.19,0,0,0-4.92-1.12v29.29c0,3.66,6.6,3.66,6.6,3.66V513.49a19,19,0,0,1,5.31-.89h1.44v0h6.92s0-5.4-2.93-5.4m-514.11,9.83c0-3.13,1.86-4.52,6.81-4.52h11.82s0-5.44-3-5.44h-9.18c-8.6,0-13.19,3.45-13.19,10.16,0,13.45,20.16,5.28,20.16,13.13,0,3.27-3,4.85-7,4.85h-12.74s0,5.34,2.89,5.34h9.85c9.24,0,13.7-3.84,13.7-9.87,0-14.84-20.19-7-20.19-13.65m529.82,0c0-3.13,1.84-4.52,6.78-4.52h11.83s0-5.44-3-5.44h-9.16c-8.61,0-13.2,3.45-13.2,10.16,0,13.45,20.19,5.28,20.19,13.13,0,3.27-3,4.85-7,4.85h-12.73s0,5.34,2.9,5.34h9.83c9.24,0,13.68-3.84,13.68-9.87,0-14.84-20.16-7-20.16-13.65m165,0c0-3.13,1.79-4.52,6.76-4.52h11.82s0-5.44-3-5.44h-9.17c-8.62,0-13.19,3.45-13.19,10.16,0,13.45,20.17,5.28,20.17,13.13,0,3.27-3,4.85-7,4.85h-12.74s0,5.34,2.92,5.34h9.82c9.26,0,13.69-3.84,13.69-9.87,0-14.84-20.14-7-20.14-13.65m-587.23-9.53v26.83a21.65,21.65,0,0,1-6.78,1.07c-5,0-6.81-2.08-6.81-5.67V511.1c0-3.53-6.58-3.58-6.58-3.58V530.7c0,7.81,6.4,9.87,12.5,9.87,3.51,0,6.32-1.33,9.34-1.33a12.24,12.24,0,0,0,4.92,1.14V511.1c0-3.58-6.59-3.58-6.59-3.58m103,0v26.83a21.39,21.39,0,0,1-6.77,1.07c-5,0-6.8-2.08-6.8-5.67V511.1c0-3.53-6.6-3.58-6.6-3.58V530.7c0,7.81,6.43,9.87,12.51,9.87,3.5,0,6.3-1.33,9.32-1.33a12.34,12.34,0,0,0,4.94,1.14V511.1c0-3.58-6.6-3.58-6.6-3.58"/><path class="cls-1" d="M1623.47,442.68h13.32c2.66,0,5,2.31,5,4.43v14.56h-13.15c-2.83,0-5.14-1.94-5.14-4.43Zm155.92,0h13.31c2.66,0,5,2.31,5,4.43v14.56h-13.15c-2.82,0-5.13-1.94-5.13-4.43Zm-885-109.77c-35.23,0-51.49,15.38-51.49,41v48.8c0,25.58,16.26,41,51.49,41s51.69-15.39,51.69-41v-48.8c0-25.58-16.45-41-51.69-41m159.31,2.15v83c0,7,2,16.82,2,16.82l-9.47-15-46.86-75.29c-5.92-9.47-16.11-9.47-28.25-9.47v118c0,10.19,19.49,10.19,19.49,10.19V378.69a102.56,102.56,0,0,0-2-17.52l56.14,89.95s5.36,12.15,28.44,12.15v-118c0-10.19-19.51-10.19-19.51-10.19m95.85,0H1100V451.31c0,9.82,15.19,10.19,16.81,10.19h32.72c27.53,0,53.46-9.14,53.46-42.59V377.62c0-33.45-25.93-42.56-53.46-42.56m128.19-2.15c-35.22,0-51.51,15.38-51.51,41v48.8c0,25.58,16.29,41,51.51,41s51.7-15.39,51.7-41v-48.8c0-25.58-16.45-41-51.7-41m125.89,70.79c20,0,34.32-12.32,34.32-32v-5.36c0-23.61-18.6-31.29-44.54-31.29h-39v118c0,10,19.5,10.19,19.5,10.19V405.14c25.4,5,32.72,24.87,44.53,46.87,5,9.29,13.58,10.91,19.31,10.91a43.89,43.89,0,0,0,8.06-1.08c-10-14.85-19-46.85-42.2-58.14m-849-53.62c11.27,0,11.27-15,11.27-15H482.61V451.31c0,10.19,17.17,10.19,17.17,10.19h54.89c10.92,0,11.27-14.15,11.27-15H502.1v-45.6h45.31c10.91,0,11.27-14.14,11.27-15H502.1V350.08Zm89.62,96.39H606v-103c0-10.2-19.49-10.2-19.49-10.2V451.31c0,10.19,17.17,10.19,17.17,10.19h50.79c.11,0,.21-.05.33-.05,10.48-.38,10.83-14.1,10.83-15H644.29Zm128.53-97.66h48.26s0-15.9-8.29-15.9h-40c-27.38,0-51.52,11.1-51.52,42.55v45.61c0,31.48,24.14,42.57,51.52,42.57h40c8.29,0,8.29-15.92,8.29-15.92H772.82c-18.79,0-32-7.15-32-29.31V378c0-22.17,13.23-29.16,32-29.16m971,35.79c4.8,15.45,9.77,30.91,14.74,46.35,4.46,14.21,8,25.76,11.19,30.72a26.79,26.79,0,0,1-7.28,1.25c-15.29,0-19.53-15.1-23.63-28.41L1735.72,424h-48l-3.17,10.47c-4.1,13.31-8.37,28.41-23.64,28.41a26.48,26.48,0,0,1-7.27-1.25c3.18-5,6.73-16.51,11.18-30.72,5-15.44,9.75-30.9,14.73-46.35,11.74-37.47,22.32-52,32.16-52s20.24,14.56,32.14,52m-46.4,4.63-5.84,19.71h39.07l-5.85-19.71c-5.87-19.53-13.68-32.16-13.68-32.16-1.61,2.13-7.83,12.63-13.7,32.16M1529.81,372.5c0-18.32,13.27-20.66,32.51-20.66h45.82s0-18.1-11.52-18.1H1561.1c-33.38,0-51.17,13.41-51.17,39.5,0,49.27,84.41,17.6,84.41,50.91,0,19.26-17.88,21.86-33.24,21.86h-49.41s0,17.63,11.24,17.63h38.17c35.8,0,53.12-14.88,53.12-38.27,0-54.32-84.41-24.07-84.41-52.87M926.58,420.35c0,17.7-5.18,28.27-32.37,28.27-26.63,0-31.83-10.57-31.83-28.27V376.19c0-17.7,5.2-28.26,31.83-28.26,27.19,0,32.37,10.56,32.37,28.26Zm256.93-3.22c0,22.19-15,29.34-34,29.34h-30.06V350.08h30.06c19,0,34,7,34,29.14Zm126.42,3.22c0,17.7-5.19,28.27-32.37,28.27-26.63,0-31.82-10.57-31.82-28.27V376.19c0-17.7,5.19-28.26,31.82-28.26,27.18,0,32.37,10.56,32.37,28.26Zm84.92-30.21h-20.92V350.08h19.48c17,0,25,4.65,25,18.95,0,14-6.07,21.11-23.61,21.11"/></svg>